# xmcd
#
# Track frame offsets: 
#        150
#        26462
#        28094
#        47551
#        49939
#        69291
#        71126
#        90389
#        112184
#        137125
#        138737
#        159153
#        188587
#        216989
#        239591
#        266300
#
# Disc length: 3889 seconds
#
# Revision: 1
# Processed by: cddbd v1.5.2PL0 Copyright (c) Steve Scherf et al.
# Submitted via: ExactAudioCopyFreeDBPlugin 1.0
#
DISCID=e60f2f10
DTITLE=Selection - Selection
DYEAR=1982
DGENRE=R&B
TTITLE0=Got To Be Real
TTITLE1=Taxi
TTITLE2=Rebel On The Run
TTITLE3=Second Riff
TTITLE4=I'm So Glad
TTITLE5=First Riff
TTITLE6=Desire
TTITLE7=Ride The Beam
TTITLE8=Spirit At The End
TTITLE9=Insert Slow Fun
TTITLE10=On The Ground
TTITLE11=Live For Love
TTITLE12=Ride The Beam (Remix)
TTITLE13=Rebel On The Run (Remix)
TTITLE14=Got To Be Real (Remix)
TTITLE15=Got To Be Real Instrumental (Remix)
EXTD=
EXTT0=
EXTT1=
EXTT2=
EXTT3=
EXTT4=
EXTT5=
EXTT6=
EXTT7=
EXTT8=
EXTT9=
EXTT10=
EXTT11=
EXTT12=
EXTT13=
EXTT14=
EXTT15=
PLAYORDER=
